<svg width="198" height="56" viewBox="0 0 198 56" fill="none" xmlns="http://www.w3.org/2000/svg">
<rect x="8.60596" y="0.378418" width="110.842" height="47.7449" rx="4" fill="#ECFFDF"/>
<path d="M18.4434 11.0751H29.3554C31.8727 11.0751 33.7607 11.6191 35.0194 12.7071C36.2781 13.7951 36.9074 15.3098 36.9074 17.2511C36.9074 18.3391 36.7474 19.2458 36.4274 19.9711C36.1074 20.6751 35.7341 21.2511 35.3074 21.6991C34.8807 22.1258 34.4541 22.4351 34.0274 22.6271C33.6221 22.8191 33.3234 22.9471 33.1314 23.0111V23.0751C33.4727 23.1178 33.8354 23.2244 34.2194 23.3951C34.6247 23.5658 34.9981 23.8431 35.3394 24.2271C35.6807 24.5898 35.9581 25.0698 36.1714 25.6671C36.4061 26.2644 36.5234 27.0111 36.5234 27.9071C36.5234 29.2511 36.6194 30.4778 36.8114 31.5871C37.0247 32.6751 37.3447 33.4538 37.7714 33.9231H33.4834C33.1847 33.4324 33.0034 32.8884 32.9394 32.2911C32.8967 31.6938 32.8754 31.1178 32.8754 30.5631C32.8754 29.5178 32.8114 28.6218 32.6834 27.8751C32.5554 27.1071 32.3207 26.4778 31.9794 25.9871C31.6381 25.4751 31.1687 25.1018 30.5714 24.8671C29.9954 24.6324 29.2487 24.5151 28.3314 24.5151H22.4434V33.9231H18.4434V11.0751ZM22.4434 21.4751H29.0034C30.2834 21.4751 31.2541 21.1764 31.9154 20.5791C32.5767 19.9604 32.9074 19.0431 32.9074 17.8271C32.9074 17.1018 32.8007 16.5151 32.5874 16.0671C32.3741 15.5978 32.0754 15.2351 31.6914 14.9791C31.3287 14.7231 30.9021 14.5524 30.4114 14.4671C29.9421 14.3818 29.4514 14.3391 28.9394 14.3391H22.4434V21.4751ZM51.8226 24.1951C51.78 23.6191 51.652 23.0644 51.4386 22.5311C51.2466 21.9978 50.9693 21.5391 50.6066 21.1551C50.2653 20.7498 49.8386 20.4298 49.3266 20.1951C48.836 19.9391 48.2813 19.8111 47.6626 19.8111C47.0226 19.8111 46.436 19.9284 45.9026 20.1631C45.3906 20.3764 44.9426 20.6858 44.5586 21.0911C44.196 21.4751 43.8973 21.9338 43.6626 22.4671C43.4493 23.0004 43.332 23.5764 43.3106 24.1951H51.8226ZM43.3106 26.5951C43.3106 27.2351 43.396 27.8538 43.5666 28.4511C43.7586 29.0484 44.036 29.5711 44.3986 30.0191C44.7613 30.4671 45.22 30.8298 45.7746 31.1071C46.3293 31.3631 46.9906 31.4911 47.7586 31.4911C48.8253 31.4911 49.6786 31.2671 50.3186 30.8191C50.98 30.3498 51.4706 29.6564 51.7906 28.7391H55.2466C55.0546 29.6351 54.724 30.4351 54.2546 31.1391C53.7853 31.8431 53.22 32.4404 52.5586 32.9311C51.8973 33.4004 51.1506 33.7524 50.3186 33.9871C49.508 34.2431 48.6546 34.3711 47.7586 34.3711C46.4573 34.3711 45.3053 34.1578 44.3026 33.7311C43.3 33.3044 42.4466 32.7071 41.7426 31.9391C41.06 31.1711 40.5373 30.2538 40.1746 29.1871C39.8333 28.1204 39.6626 26.9471 39.6626 25.6671C39.6626 24.4938 39.844 23.3844 40.2066 22.3391C40.5906 21.2724 41.124 20.3444 41.8066 19.5551C42.5106 18.7444 43.3533 18.1044 44.3346 17.6351C45.316 17.1658 46.4253 16.9311 47.6626 16.9311C48.964 16.9311 50.1266 17.2084 51.1506 17.7631C52.196 18.2964 53.06 19.0111 53.7426 19.9071C54.4253 20.8031 54.916 21.8378 55.2146 23.0111C55.5346 24.1631 55.62 25.3578 55.4706 26.5951H43.3106ZM58.2439 11.0751H61.8919V19.5551H61.9559C62.4039 18.8084 63.0652 18.1898 63.9399 17.6991C64.8359 17.1871 65.8279 16.9311 66.9159 16.9311C68.7292 16.9311 70.1586 17.4004 71.2039 18.3391C72.2492 19.2778 72.7719 20.6858 72.7719 22.5631V33.9231H69.1239V23.5231C69.0812 22.2218 68.8039 21.2831 68.2919 20.7071C67.7799 20.1098 66.9799 19.8111 65.8919 19.8111C65.2732 19.8111 64.7186 19.9284 64.2279 20.1631C63.7372 20.3764 63.3212 20.6858 62.9799 21.0911C62.6386 21.4751 62.3719 21.9338 62.1799 22.4671C61.9879 23.0004 61.8919 23.5658 61.8919 24.1631V33.9231H58.2439V11.0751ZM90.4749 30.2431C90.4749 30.6911 90.5282 31.0111 90.6349 31.2031C90.7629 31.3951 90.9976 31.4911 91.3389 31.4911C91.4456 31.4911 91.5736 31.4911 91.7229 31.4911C91.8722 31.4911 92.0429 31.4698 92.2349 31.4271V33.9551C92.1069 33.9978 91.9362 34.0404 91.7229 34.0831C91.5309 34.1471 91.3282 34.2004 91.1149 34.2431C90.9016 34.2858 90.6882 34.3178 90.4749 34.3391C90.2616 34.3604 90.0802 34.3711 89.9309 34.3711C89.1842 34.3711 88.5656 34.2218 88.0749 33.9231C87.5842 33.6244 87.2642 33.1018 87.1149 32.3551C86.3896 33.0591 85.4936 33.5711 84.4269 33.8911C83.3816 34.2111 82.3682 34.3711 81.3869 34.3711C80.6402 34.3711 79.9256 34.2644 79.2429 34.0511C78.5602 33.8591 77.9522 33.5711 77.4189 33.1871C76.9069 32.7818 76.4909 32.2804 76.1709 31.6831C75.8722 31.0644 75.7229 30.3498 75.7229 29.5391C75.7229 28.5151 75.9042 27.6831 76.2669 27.0431C76.6509 26.4031 77.1416 25.9018 77.7389 25.5391C78.3576 25.1764 79.0402 24.9204 79.7869 24.7711C80.5549 24.6004 81.3229 24.4724 82.0909 24.3871C82.7522 24.2591 83.3816 24.1738 83.9789 24.1311C84.5762 24.0671 85.0989 23.9711 85.5469 23.8431C86.0162 23.7151 86.3789 23.5231 86.6349 23.2671C86.9122 22.9898 87.0509 22.5844 87.0509 22.0511C87.0509 21.5818 86.9336 21.1978 86.6989 20.8991C86.4856 20.6004 86.2082 20.3764 85.8669 20.2271C85.5469 20.0564 85.1842 19.9498 84.7789 19.9071C84.3736 19.8431 83.9896 19.8111 83.6269 19.8111C82.6029 19.8111 81.7602 20.0244 81.0989 20.4511C80.4376 20.8778 80.0642 21.5391 79.9789 22.4351H76.3309C76.3949 21.3684 76.6509 20.4831 77.0989 19.7791C77.5469 19.0751 78.1122 18.5098 78.7949 18.0831C79.4989 17.6564 80.2882 17.3578 81.1629 17.1871C82.0376 17.0164 82.9336 16.9311 83.8509 16.9311C84.6616 16.9311 85.4616 17.0164 86.2509 17.1871C87.0402 17.3578 87.7442 17.6351 88.3629 18.0191C89.0029 18.4031 89.5149 18.9044 89.8989 19.5231C90.2829 20.1204 90.4749 20.8564 90.4749 21.7311V30.2431ZM86.8269 25.6351C86.2722 25.9978 85.5896 26.2218 84.7789 26.3071C83.9682 26.3711 83.1576 26.4778 82.3469 26.6271C81.9629 26.6911 81.5896 26.7871 81.2269 26.9151C80.8642 27.0218 80.5442 27.1818 80.2669 27.3951C79.9896 27.5871 79.7656 27.8538 79.5949 28.1951C79.4456 28.5151 79.3709 28.9098 79.3709 29.3791C79.3709 29.7844 79.4882 30.1258 79.7229 30.4031C79.9576 30.6804 80.2349 30.9044 80.5549 31.0751C80.8962 31.2244 81.2589 31.3311 81.6429 31.3951C82.0482 31.4591 82.4109 31.4911 82.7309 31.4911C83.1362 31.4911 83.5736 31.4378 84.0429 31.3311C84.5122 31.2244 84.9496 31.0431 85.3549 30.7871C85.7816 30.5311 86.1336 30.2111 86.4109 29.8271C86.6882 29.4218 86.8269 28.9311 86.8269 28.3551V25.6351ZM94.4961 11.0751H98.1441V19.5231H98.2081C98.4641 19.1178 98.7735 18.7551 99.1361 18.4351C99.4988 18.1151 99.8935 17.8484 100.32 17.6351C100.768 17.4004 101.227 17.2298 101.696 17.1231C102.187 16.9951 102.667 16.9311 103.136 16.9311C104.437 16.9311 105.568 17.1658 106.528 17.6351C107.509 18.0831 108.32 18.7124 108.96 19.5231C109.6 20.3124 110.08 21.2404 110.4 22.3071C110.72 23.3738 110.88 24.5151 110.88 25.7311C110.88 26.8404 110.731 27.9178 110.432 28.9631C110.155 30.0084 109.717 30.9364 109.12 31.7471C108.544 32.5364 107.808 33.1764 106.912 33.6671C106.016 34.1364 104.96 34.3711 103.744 34.3711C103.189 34.3711 102.624 34.3284 102.048 34.2431C101.493 34.1791 100.96 34.0404 100.448 33.8271C99.9361 33.6138 99.4668 33.3364 99.0401 32.9951C98.6348 32.6538 98.2935 32.2058 98.0161 31.6511H97.9521V33.9231H94.4961V11.0751ZM107.232 25.6671C107.232 24.9204 107.136 24.1951 106.944 23.4911C106.752 22.7871 106.464 22.1684 106.08 21.6351C105.696 21.0804 105.216 20.6431 104.64 20.3231C104.064 19.9818 103.403 19.8111 102.656 19.8111C101.12 19.8111 99.9575 20.3444 99.1681 21.4111C98.4001 22.4778 98.0161 23.8964 98.0161 25.6671C98.0161 26.4991 98.1121 27.2778 98.3041 28.0031C98.5175 28.7071 98.8268 29.3151 99.2321 29.8271C99.6375 30.3391 100.117 30.7444 100.672 31.0431C101.248 31.3418 101.909 31.4911 102.656 31.4911C103.488 31.4911 104.192 31.3204 104.768 30.9791C105.344 30.6378 105.813 30.2004 106.176 29.6671C106.56 29.1124 106.827 28.4938 106.976 27.8111C107.147 27.1071 107.232 26.3924 107.232 25.6671Z" fill="#043D31"/>
<path d="M118.943 16.4623H122.399V18.7023H122.463C122.975 17.7423 123.689 17.0597 124.607 16.6543C125.524 16.2277 126.516 16.0143 127.583 16.0143C128.884 16.0143 130.015 16.249 130.975 16.7183C131.956 17.1663 132.767 17.7957 133.407 18.6063C134.047 19.3957 134.527 20.3237 134.847 21.3903C135.167 22.457 135.327 23.5983 135.327 24.8143C135.327 25.9237 135.177 27.001 134.879 28.0463C134.601 29.0917 134.164 30.0197 133.567 30.8303C132.991 31.6197 132.255 32.2597 131.359 32.7503C130.463 33.2197 129.407 33.4543 128.191 33.4543C127.657 33.4543 127.124 33.401 126.591 33.2943C126.057 33.209 125.545 33.0597 125.055 32.8463C124.564 32.633 124.105 32.3663 123.679 32.0463C123.273 31.705 122.932 31.3103 122.655 30.8623H122.591V39.1183H118.943V16.4623ZM131.679 24.7503C131.679 24.0037 131.583 23.2783 131.391 22.5743C131.199 21.8703 130.911 21.2517 130.527 20.7183C130.143 20.1637 129.663 19.7263 129.087 19.4063C128.511 19.065 127.849 18.8943 127.103 18.8943C125.567 18.8943 124.404 19.4277 123.615 20.4943C122.847 21.561 122.463 22.9797 122.463 24.7503C122.463 25.5823 122.559 26.361 122.751 27.0863C122.964 27.7903 123.273 28.3983 123.679 28.9103C124.084 29.4223 124.564 29.8277 125.119 30.1263C125.695 30.425 126.356 30.5743 127.103 30.5743C127.935 30.5743 128.639 30.4037 129.215 30.0623C129.791 29.721 130.26 29.2837 130.623 28.7503C131.007 28.1957 131.273 27.577 131.423 26.8943C131.593 26.1903 131.679 25.4757 131.679 24.7503ZM138.505 10.1583H142.153V33.0063H138.505V10.1583ZM159.984 29.3263C159.984 29.7743 160.037 30.0943 160.144 30.2863C160.272 30.4783 160.507 30.5743 160.848 30.5743C160.955 30.5743 161.083 30.5743 161.232 30.5743C161.381 30.5743 161.552 30.553 161.744 30.5103V33.0383C161.616 33.081 161.445 33.1237 161.232 33.1663C161.04 33.2303 160.837 33.2837 160.624 33.3263C160.411 33.369 160.197 33.401 159.984 33.4223C159.771 33.4437 159.589 33.4543 159.44 33.4543C158.693 33.4543 158.075 33.305 157.584 33.0063C157.093 32.7077 156.773 32.185 156.624 31.4383C155.899 32.1423 155.003 32.6543 153.936 32.9743C152.891 33.2943 151.877 33.4543 150.896 33.4543C150.149 33.4543 149.435 33.3477 148.752 33.1343C148.069 32.9423 147.461 32.6543 146.928 32.2703C146.416 31.865 146 31.3637 145.68 30.7663C145.381 30.1477 145.232 29.433 145.232 28.6223C145.232 27.5983 145.413 26.7663 145.776 26.1263C146.16 25.4863 146.651 24.985 147.248 24.6223C147.867 24.2597 148.549 24.0037 149.296 23.8543C150.064 23.6837 150.832 23.5557 151.6 23.4703C152.261 23.3423 152.891 23.257 153.488 23.2143C154.085 23.1503 154.608 23.0543 155.056 22.9263C155.525 22.7983 155.888 22.6063 156.144 22.3503C156.421 22.073 156.56 21.6677 156.56 21.1343C156.56 20.665 156.443 20.281 156.208 19.9823C155.995 19.6837 155.717 19.4597 155.376 19.3103C155.056 19.1397 154.693 19.033 154.288 18.9903C153.883 18.9263 153.499 18.8943 153.136 18.8943C152.112 18.8943 151.269 19.1077 150.608 19.5343C149.947 19.961 149.573 20.6223 149.488 21.5183H145.84C145.904 20.4517 146.16 19.5663 146.608 18.8623C147.056 18.1583 147.621 17.593 148.304 17.1663C149.008 16.7397 149.797 16.441 150.672 16.2703C151.547 16.0997 152.443 16.0143 153.36 16.0143C154.171 16.0143 154.971 16.0997 155.76 16.2703C156.549 16.441 157.253 16.7183 157.872 17.1023C158.512 17.4863 159.024 17.9877 159.408 18.6063C159.792 19.2037 159.984 19.9397 159.984 20.8143V29.3263ZM156.336 24.7183C155.781 25.081 155.099 25.305 154.288 25.3903C153.477 25.4543 152.667 25.561 151.856 25.7103C151.472 25.7743 151.099 25.8703 150.736 25.9983C150.373 26.105 150.053 26.265 149.776 26.4783C149.499 26.6703 149.275 26.937 149.104 27.2783C148.955 27.5983 148.88 27.993 148.88 28.4623C148.88 28.8677 148.997 29.209 149.232 29.4863C149.467 29.7637 149.744 29.9877 150.064 30.1583C150.405 30.3077 150.768 30.4143 151.152 30.4783C151.557 30.5423 151.92 30.5743 152.24 30.5743C152.645 30.5743 153.083 30.521 153.552 30.4143C154.021 30.3077 154.459 30.1263 154.864 29.8703C155.291 29.6143 155.643 29.2943 155.92 28.9103C156.197 28.505 156.336 28.0143 156.336 27.4383V24.7183ZM163.909 16.4623H167.365V18.8943L167.429 18.9583C167.984 18.041 168.709 17.3263 169.605 16.8143C170.501 16.281 171.493 16.0143 172.581 16.0143C174.394 16.0143 175.824 16.4837 176.869 17.4223C177.914 18.361 178.437 19.769 178.437 21.6463V33.0063H174.789V22.6063C174.746 21.305 174.469 20.3663 173.957 19.7903C173.445 19.193 172.645 18.8943 171.557 18.8943C170.938 18.8943 170.384 19.0117 169.893 19.2463C169.402 19.4597 168.986 19.769 168.645 20.1743C168.304 20.5583 168.037 21.017 167.845 21.5503C167.653 22.0837 167.557 22.649 167.557 23.2463V33.0063H163.909V16.4623Z" fill="#043D31"/>
</svg>
